<?xml version="1.0" encoding="UTF-8" standalone="no"?>
<!-- Created with Inkscape (http://www.inkscape.org/) -->

<svg
   width="84.756233mm"
   height="19.519943mm"
   viewBox="0 0 84.756233 19.519943"
   version="1.1"
   id="svg341527"
   inkscape:version="1.2.2 (b0a8486541, 2022-12-01)"
   sodipodi:docname="misir.svg"
   xmlns:inkscape="http://www.inkscape.org/namespaces/inkscape"
   xmlns:sodipodi="http://sodipodi.sourceforge.net/DTD/sodipodi-0.dtd"
   xmlns="http://www.w3.org/2000/svg"
   xmlns:svg="http://www.w3.org/2000/svg">
  <sodipodi:namedview
     id="namedview341529"
     pagecolor="#ffffff"
     bordercolor="#000000"
     borderopacity="0.25"
     inkscape:showpageshadow="2"
     inkscape:pageopacity="0.0"
     inkscape:pagecheckerboard="0"
     inkscape:deskcolor="#d1d1d1"
     inkscape:document-units="mm"
     showgrid="false"
     inkscape:zoom="0.75187991"
     inkscape:cx="217.45494"
     inkscape:cy="141.64496"
     inkscape:window-width="1860"
     inkscape:window-height="1016"
     inkscape:window-x="60"
     inkscape:window-y="27"
     inkscape:window-maximized="1"
     inkscape:current-layer="layer1" />
  <defs
     id="defs341524" />
  <g
     inkscape:label="Katman 1"
     inkscape:groupmode="layer"
     id="layer1"
     transform="translate(-42.076858,-111.29216)">
    <path
       style="fill:none;stroke:#000000;stroke-width:0.281164;stroke-linecap:butt;stroke-linejoin:miter;stroke-miterlimit:10;stroke-opacity:1"
       d="M 42.076858,111.43274 H 126.83309"
       id="path335635" />
    <g
       style="fill:#000000;fill-opacity:1"
       id="g335639"
       transform="matrix(0.35277777,0,0,0.35277777,-0.54448427,-1.6532086)">
      <g
         id="use335637"
         transform="translate(126.796,350.84299)">
        <path
           style="stroke:none"
           d="M 0,-11.203125 V 0 h 1.125 v -11.203125 z m 0,0"
           id="path341873" />
      </g>
    </g>
    <g
       style="fill:#000000;fill-opacity:1"
       id="g335643"
       transform="matrix(0.35277777,0,0,0.35277777,-0.54448427,-1.6532086)">
      <g
         id="use335641"
         transform="translate(144.20897,350.84299)">
        <path
           style="stroke:none"
           d="M 0.046875,0 H 1.15625 c 0,-0.796875 -0.03125,-1.609375 -0.03125,-2.40625 0,-1.65625 -0.046875,-2.953125 0.71875,-4.171875 0.5,-0.796875 1.4375,-1.5625 2.671875,-1.5625 1.34375,0 2.515625,0.953125 3.03125,2.28125 0.359375,1.046875 0.375,2.125 0.375,3.390625 C 7.921875,-1.65625 7.875,-0.828125 7.875,0 H 9 c 0,-0.90625 0.03125,-1.828125 0.03125,-2.71875 0,-1.921875 0.015625,-3.4375 -0.890625,-4.875 C 7.46875,-8.65625 6.15625,-9.609375 4.59375,-9.609375 c -1.65625,0 -3.296875,0.96875 -4,2.59375 -0.390625,0.875 -0.484375,1.8125 -0.546875,2.734375 C 0,-3.796875 0,-3.328125 0,-2.84375 0,-1.90625 0.046875,-0.953125 0.046875,0 Z m 0,0"
           id="path341921" />
      </g>
    </g>
    <g
       style="fill:#000000;fill-opacity:1"
       id="g335647"
       transform="matrix(0.35277777,0,0,0.35277777,-0.54448427,-1.6532086)">
      <g
         id="use335645"
         transform="translate(171.79288,350.84299)">
        <path
           style="stroke:none"
           d="M 3.84375,-14.15625 C 1.828125,-14.15625 0,-12.625 0,-10.421875 0,-8.609375 1.1875,-6.875 2.28125,-5.53125 l 0.75,0.96875 c 0.359375,0.453125 0.703125,0.890625 1.03125,1.375 0.53125,0.84375 0.953125,1.78125 1.296875,2.796875 C 5.453125,-0.203125 5.40625,0 5.6875,0 5.796875,0 5.90625,0.015625 6.015625,0.015625 6.375,0.015625 6.59375,-0.265625 6.59375,-0.5 c 0,-0.125 -0.0625,-0.265625 -0.109375,-0.4375 C 6.265625,-1.671875 5.96875,-2.390625 5.625,-3.078125 4.671875,-4.921875 3.109375,-6.3125 2.015625,-8.046875 c -0.40625,-0.671875 -0.78125,-1.5 -0.78125,-2.328125 0,-1.46875 1.28125,-2.5625 2.546875,-2.5625 1,0 1.640625,0.703125 1.640625,1.5 0,0.625 -0.5,1.4375 -1.21875,1.4375 C 3.40625,-10 3,-11.25 2.90625,-11.921875 h -0.75 c 0.0625,1.390625 0.53125,3.09375 2.140625,3.28125 0.09375,0.03125 0.171875,0.03125 0.265625,0.03125 0.140625,0 0.296875,-0.03125 0.421875,-0.078125 C 6.15625,-8.984375 6.875,-10.046875 6.875,-11.265625 6.875,-13 5.5625,-14.15625 3.84375,-14.15625 Z m 0,0"
           id="path342009" />
      </g>
    </g>
    <g
       style="fill:#000000;fill-opacity:1"
       id="g335651"
       transform="matrix(0.35277777,0,0,0.35277777,-0.54448427,-1.6532086)">
      <g
         id="use335649"
         transform="translate(201.00397,350.84299)">
        <path
           style="stroke:none"
           d="m 2.5625,-4.8125 c 0,0.109375 -0.109375,0.234375 -0.15625,0.3125 -0.171875,0.328125 -0.328125,0.640625 -0.515625,0.96875 L 0.734375,-1.375 C 0.5,-0.90625 0.203125,-0.484375 0,0 H 8.96875 C 8.9375,-0.046875 6.53125,-4.515625 6.53125,-4.53125 6.484375,-4.625 6.375,-4.734375 6.375,-4.84375 6.375,-5.015625 6.75,-5.25 6.875,-5.375 7.296875,-5.796875 7.828125,-6.234375 8.1875,-6.703125 L 5.59375,-5.59375 v -15.890625 c 0,-0.04687 0,-0.109375 0.03125,-0.15625 0.078125,-0.125 0.5,-0.171875 0.640625,-0.21875 0.640625,-0.171875 1.3125,-0.453125 1.953125,-0.53125 0,-0.109375 0.046875,-0.3125 0.046875,-0.484375 0,-0.4375 -0.328125,-0.40625 -0.546875,-0.515625 L 6.515625,-24 c -0.328125,-0.171875 -0.5625,-0.109375 -0.5625,-0.640625 0,-0.5625 0.25,-0.53125 0.5,-0.78125 L 7.59375,-26.375 c 0.203125,-0.140625 0.4375,-0.3125 0.609375,-0.515625 -0.484375,-0.21875 -1.046875,-0.296875 -1.546875,-0.40625 -0.734375,-0.171875 -1.5625,-0.28125 -2.359375,-0.28125 -1.96875,0 -4.25,0.90625 -4.25,2.984375 0,1.890625 2.28125,3.265625 4.0625,3.296875 v 16.0625 L 0.78125,-6.34375 c 0.109375,0.15625 0.296875,0.265625 0.453125,0.390625 L 2.109375,-5.25 C 2.21875,-5.171875 2.5625,-5.015625 2.5625,-4.8125 Z m 2.46875,-17.515625 c -1.640625,0 -3.796875,-0.5 -3.796875,-2.09375 0,-1.484375 1.703125,-2.3125 3.328125,-2.3125 0.578125,0 1.1875,0.07813 1.78125,0.21875 C 6.03125,-26.15625 5.5625,-25.875 5.1875,-25.5625 4.96875,-25.390625 4.75,-25.15625 4.5,-25.046875 l 1.84375,2.65625 c -0.4375,0 -0.859375,0.0625 -1.3125,0.0625 z M 7.46875,-1.5 H 1.5 C 1.65625,-1.859375 1.90625,-2.1875 2.171875,-2.46875 2.6875,-3.0625 3.5,-3.609375 4.46875,-3.609375 c 1.28125,0 2.5,0.875 3,2.109375 z m 0,0"
           id="path341885" />
      </g>
    </g>
    <g
       style="fill:#000000;fill-opacity:1"
       id="g335655"
       transform="matrix(0.35277777,0,0,0.35277777,-0.54448427,-1.6532086)">
      <g
         id="use335653"
         transform="translate(239.05606,350.84299)">
        <path
           style="stroke:none"
           d="M 5.078125,-25.484375 C 5.078125,-26.5 4.59375,-26.875 3.640625,-26.875 2.625,-26.875 1.625,-26.34375 1.046875,-25.5 0.265625,-24.375 0,-22.9375 0,-21.203125 c 0,2 0.375,3.96875 0.546875,5.90625 0.078125,0.71875 0.1875,1.3125 0.1875,2.078125 0,0.90625 -0.125,1.828125 -0.140625,2.71875 C 0.5625,-9.390625 0.484375,-8.265625 0.390625,-7.15625 0.28125,-5.640625 0.265625,-4.140625 0.15625,-2.625 0.09375,-1.765625 0,-0.890625 0,-0.015625 0.5,-0.015625 1,0 1.5,0 c 0.9375,0 1.71875,0.015625 2.296875,-0.546875 0.609375,-0.609375 0.625,-1.5625 0.671875,-2.359375 0.046875,-0.984375 0.171875,-1.953125 0.265625,-2.9375 0.015625,-0.1875 0.75,-8.421875 0.734375,-8.203125 0.046875,-0.296875 0.09375,-0.625 0.09375,-0.921875 V -15.125 C 5.421875,-17 4.6875,-18.734375 4.453125,-20.578125 4.40625,-20.875 4.390625,-21.1875 4.390625,-21.484375 c 0,-1.5 0.6875,-2.5 0.6875,-4 z M 1.125,-3.6875 c 0,-0.765625 0.09375,-1.546875 0.15625,-2.296875 0.109375,-1.59375 0.28125,-3.203125 0.390625,-4.78125 0.0625,-0.84375 0.1875,-1.625 0.1875,-2.515625 0,-0.609375 -0.0625,-1.1875 -0.140625,-1.78125 -0.25,-1.671875 -0.65625,-3.359375 -0.65625,-5.0625 0,-0.21875 0,-0.421875 0.015625,-0.640625 C 1.125,-21.40625 1.15625,-22.25 1.5,-22.78125 c 0.328125,0.203125 0.5625,0.578125 0.796875,0.875 1.28125,1.640625 1.875,3.78125 1.875,6.4375 0,1.734375 -0.25,3.46875 -0.484375,5.15625 -0.15625,1.171875 -0.21875,2.328125 -0.328125,3.5 -0.015625,0.15625 -0.015625,0.296875 -0.015625,0.453125 0,0.296875 0.015625,0.609375 0.015625,0.90625 C 3.34375,-4.25 3.25,-1.40625 1.96875,-1.40625 1.234375,-1.40625 1.125,-2.78125 1.125,-3.6875 Z m 0,0"
           id="path341877" />
      </g>
    </g>
    <g
       style="fill:#000000;fill-opacity:1"
       id="g335659"
       transform="matrix(0.35277777,0,0,0.35277777,-0.54448427,-1.6532086)">
      <g
         id="use335657"
         transform="translate(274.07074,350.84299)">
        <path
           style="stroke:none"
           d="m 13.484375,-10.828125 c 1.09375,0 2.203125,0.21875 2.96875,1.171875 0.625,0.765625 0.9375,1.734375 1.125,2.6875 0.484375,2.1875 0.609375,4.625 1.671875,6.3125 0.15625,0.21875 0.328125,0.5 0.546875,0.65625 0.515625,-1.234375 0.671875,-2.5625 0.671875,-3.859375 0,-0.546875 -0.03125,-1.0625 -0.0625,-1.59375 -0.21875,-3.1875 -1.109375,-6.421875 -2.375,-9.375 -0.625,-1.5 -1.390625,-2.984375 -2.453125,-4.203125 -1.8125,-2.09375 -4.40625,-3.15625 -6.59375,-4.78125 -1.46875,-1.0625 -3.25,-2.734375 -5.203125,-2.734375 -0.3125,0 -0.609375,0.04687 -0.921875,0.140625 C 1.9375,-26.109375 1.234375,-25.5625 0.625,-24.953125 0.296875,-24.640625 0,-24.21875 0,-23.75 c 0,0.71875 0.5625,1.21875 1.046875,1.609375 0.8125,0.703125 1.8125,1.21875 2.53125,2.046875 0.671875,0.78125 1.0625,1.78125 1.40625,2.734375 0.484375,1.34375 0.875,2.75 1.5625,4.015625 0.484375,0.890625 1.21875,1.90625 2.171875,2.34375 0.71875,0.296875 1.53125,0.28125 2.421875,0.28125 0.796875,0 1.5625,-0.109375 2.34375,-0.109375 z m -2.53125,-4.21875 c 0,-0.84375 0.359375,-1.6875 0.609375,-2.484375 -0.578125,0.453125 -1.28125,1.0625 -1.53125,1.8125 -0.109375,0.3125 -0.140625,0.609375 -0.140625,0.921875 0,0.6875 0.171875,1.40625 0.171875,2.09375 L 7.984375,-13.5625 5.140625,-20.203125 4.125,-22.578125 C 4,-22.890625 3.890625,-23.21875 3.71875,-23.5 3.234375,-23.65625 2.734375,-23.765625 2.234375,-23.890625 2.234375,-24 2.1875,-24.203125 2.1875,-24.375 c 0,-0.46875 0.453125,-0.453125 0.703125,-0.515625 0.5625,-0.21875 1.1875,-0.4375 1.78125,-0.4375 1.203125,0 1.78125,0.828125 2.53125,1.546875 0.65625,0.609375 1.375,1.125 2.109375,1.640625 2.1875,1.5625 4.484375,3.109375 6.265625,5.140625 2.046875,2.375 3.09375,5.625 3.09375,8.75 -0.15625,-0.125 -0.25,-0.328125 -0.328125,-0.46875 -1.0625,-1.71875 -1.765625,-4.515625 -4.125,-4.71875 0.359375,0.375 0.734375,0.734375 1.078125,1.125 C 14.84375,-12.125 14.390625,-12 13.90625,-12 c -1.515625,0 -2.953125,-1.34375 -2.953125,-3.046875 z m 0,0"
           id="path341917" />
      </g>
    </g>
    <g
       style="fill:#000000;fill-opacity:1"
       id="g335663"
       transform="matrix(0.35277777,0,0,0.35277777,-0.54448427,-1.6532086)">
      <g
         id="use335661"
         transform="translate(322.04211,350.84299)">
        <path
           style="stroke:none"
           d="M 7.328125,-16.03125 C 7.046875,-16.078125 6.765625,-16.1875 6.484375,-16.25 5.671875,-16.46875 4.8125,-16.640625 3.96875,-16.796875 3.890625,-16.8125 3.75,-16.84375 3.6875,-16.90625 3.609375,-16.96875 3.578125,-17.125 3.53125,-17.203125 3.125,-18.421875 2.859375,-19.75 2.46875,-21.015625 2.359375,-21.375 2.28125,-21.75 2.125,-22.109375 c -0.078125,-0.1875 -0.234375,-0.359375 -0.28125,-0.53125 -0.015625,-0.171875 0,-0.34375 -0.015625,-0.515625 C 1.734375,-24 1.65625,-25.3125 0.546875,-25.3125 c -0.0625,0.375 -0.0625,0.75 -0.09375,1.109375 -0.015625,0.34375 -0.0625,0.71875 -0.0625,1.0625 0,0.71875 0.15625,1.765625 0.90625,1.765625 0.109375,1.46875 0.265625,3.015625 0.703125,4.421875 0.234375,0.78125 0.609375,1.5 1.34375,1.90625 0.90625,0.5 1.96875,0.328125 2.953125,0.578125 -0.203125,0.1875 -0.59375,0.515625 -0.59375,0.84375 0,0.171875 0.203125,0.234375 0.328125,0.234375 0.421875,0 0.734375,-0.546875 1.109375,-0.65625 H 7.1875 c 0.078125,0 0.234375,0.0625 0.328125,0.109375 0.640625,0.3125 0.953125,1.0625 1.140625,1.71875 0.28125,0.953125 0.328125,1.96875 0.328125,2.96875 0,0.609375 -0.015625,1.21875 -0.015625,1.8125 C 8.4375,-7.59375 7.9375,-8.015625 7.546875,-8.375 6.59375,-9.265625 5.6875,-10.5625 4.359375,-10.9375 c -0.1875,-0.0625 -0.40625,-0.09375 -0.625,-0.09375 -1.015625,0 -1.34375,0.703125 -1.34375,1.640625 0,1.96875 0.71875,3.484375 0.71875,5.5 0,0.59375 -0.109375,1.203125 -0.5,1.65625 C 1.953125,-1.453125 0.90625,-1.078125 0,-0.71875 0.34375,-0.609375 0.671875,-0.40625 1.015625,-0.234375 1.234375,-0.109375 1.40625,0 1.71875,0 2.015625,0 2.34375,-0.0625 2.625,-0.09375 3.390625,-0.125 4.171875,-0.171875 4.921875,-0.265625 c 2.125,-0.1875 4.296875,-0.28125 6.421875,-0.359375 h 0.140625 c 0.40625,0 0.828125,0.078125 1.234375,0.140625 0.96875,0.140625 1.953125,0.359375 2.921875,0.421875 h 0.07813 c 0.46875,0 1,-0.203125 1.453125,-0.265625 -0.09376,-0.171875 -0.26563,-0.34375 -0.39063,-0.46875 -0.375,-0.375 -0.78125,-0.65625 -1.265625,-0.859375 -0.359375,-0.125 -0.78125,-0.203125 -1.078125,-0.5 -0.265625,-0.234375 -0.390625,-0.59375 -0.453125,-0.921875 -0.15625,-0.71875 -0.1875,-1.453125 -0.1875,-2.203125 v -2.8125 c 0,-0.796875 0,-1.609375 0.09375,-2.40625 0.09375,-0.953125 0.171875,-2.109375 0.765625,-2.90625 0.96875,-1.359375 3.296875,-0.578125 4.6875,-1.65625 0.6875,-0.5625 0.859375,-1.515625 0.96875,-2.34375 0.171875,-1.046875 0.203125,-2.109375 0.484375,-3.125 0.328125,-1.234375 0.859375,-2.40625 0.859375,-3.71875 -1.109375,0.4375 -2.453125,0.875 -2.453125,2.5 0,0.5625 0.09375,1.109375 0.09375,1.703125 0,2.546875 -0.953125,4.15625 -3.609375,4.15625 -0.625,0 -1.234375,-0.07813 -1.859375,-0.125 0,-0.5 0.01563,-1 0.01563,-1.5 0,-0.375 -0.01563,-0.734375 -0.04687,-1.109375 -0.03125,-0.609375 -0.07813,-1.25 -0.359375,-1.796875 -0.265625,-0.515625 -0.671875,-0.90625 -1.15625,-1.234375 -0.34375,-0.21875 -0.578125,-0.34375 -1,-0.390625 v -2.34375 c 0,-0.21875 -0.01563,-0.4375 -0.01563,-0.65625 0,-0.46875 0.01563,-0.828125 0.46875,-0.828125 h 0.21875 c 0.265625,0 0.390625,-0.109375 0.390625,-0.28125 0,-0.34375 -0.515625,-0.4375 -0.8125,-0.4375 -0.8125,0 -0.9375,0.609375 -0.9375,1.359375 0,0.8125 -0.984375,0.6875 -0.984375,1.34375 0,0.296875 0.3125,0.515625 0.5,0.71875 0.28125,0.28125 0.484375,0.625 0.484375,1.03125 -0.171875,0 -0.421875,-0.0625 -0.609375,-0.0625 -0.71875,0 -1.375,0.828125 -1.625,1.4375 -0.109375,0.1875 -0.140625,0.5 -0.25,0.671875 -0.09375,0.125 -0.234375,0.21875 -0.3125,0.34375 -0.21875,0.28125 -0.375,0.609375 -0.484375,0.953125 -0.046875,0.125 -0.109375,0.3125 -0.109375,0.453125 0.03125,0.109375 0.15625,0.15625 0.21875,0.21875 0.125,0.140625 0.28125,0.328125 0.28125,0.546875 0,0.07813 -0.015625,0.171875 -0.015625,0.28125 0,0.234375 0.078125,0.4375 0.078125,0.65625 0,0.234375 -0.21875,0.609375 -0.4375,0.609375 z m 5.84375,0.53125 c 0,0.328125 -0.359375,0.34375 -0.546875,0.4375 -0.453125,0.234375 -0.921875,0.59375 -1.421875,0.734375 0,-0.953125 0.28125,-2 0.28125,-2.984375 0,-1.9375 -1.21875,-2.53125 -2.21875,-3.390625 -0.046875,-0.04687 -0.125,-0.09375 -0.125,-0.15625 0.015625,-0.171875 0.359375,-0.40625 0.515625,-0.5 0.28125,-0.171875 0.59375,-0.25 0.890625,-0.25 0.484375,0 0.953125,0.1875 1.34375,0.484375 1.109375,0.875 1.375,2.25 1.375,3.5625 0,0.71875 -0.09375,1.375 -0.09375,2.0625 z m -5.03125,-1.5625 v -0.125 c -0.0625,-0.453125 0.0625,-1.15625 -0.515625,-1.28125 0,-0.796875 0.796875,-1.15625 1.03125,-1.828125 0.3125,0.0625 0.609375,0.3125 0.828125,0.53125 0.5625,0.5625 0.875,1.359375 0.875,2.171875 0,0.125 0,0.234375 -0.03125,0.359375 -0.515625,0.125 -0.96875,0.609375 -1.515625,0.609375 -0.265625,0 -0.671875,-0.04687 -0.671875,-0.4375 z M 8.40625,-19.125 c 0.140625,0.0625 0.3125,0.09375 0.515625,0.09375 0.1875,0 0.4375,-0.03125 0.625,-0.0625 -0.125,-0.15625 -0.4375,-0.3125 -0.71875,-0.3125 -0.1875,0 -0.359375,0.09375 -0.421875,0.28125 z m 1.171875,2.765625 0.203125,0.46875 c -0.46875,0.04687 -0.953125,0.0625 -1.421875,0.109375 0.25,-0.359375 0.796875,-0.5 1.21875,-0.578125 z m 0.890625,0.71875 v 2.59375 l 3.359375,-1.84375 c -0.09375,2.125 -0.28125,4.390625 -1.4375,6.234375 C 11.875,-7.8125 11,-6.921875 10,-6.6875 v -4.796875 c -0.359375,-1.25 -0.6875,-2.53125 -1.03125,-3.796875 z M 4.171875,-10 c 0.390625,0 0.8125,0.296875 1.0625,0.46875 0.734375,0.546875 1.359375,1.21875 1.96875,1.890625 0.3125,0.34375 0.65625,0.671875 0.90625,1.0625 L 4.625,-4.34375 C 4.390625,-4.890625 4.234375,-5.46875 4.0625,-6.03125 3.75,-7.03125 3.515625,-7.828125 3.515625,-9 c 0,-0.53125 0.171875,-1 0.65625,-1 z m 0.625,8.921875 c -0.109375,0 -0.265625,-0.078125 -0.375,-0.109375 -0.34375,-0.09375 -0.703125,-0.140625 -1.03125,-0.265625 0.25,-0.265625 0.6875,-0.4375 1,-0.625 l 2.125,-1.265625 4.125,-2.46875 c 0.671875,-0.421875 1.34375,-0.921875 2.0625,-1.234375 0.203125,0.5 0.3125,1.171875 0.3125,1.703125 0,0.5 -0.01563,0.984375 -0.1875,1.453125 -0.65625,1.984375 -3.015625,2.625 -4.921875,2.625 -0.53125,0 -0.96875,-0.015625 -1.4375,-0.109375 -0.171875,-0.03125 -0.375,-0.09375 -0.5625,-0.09375 -0.421875,0 -0.671875,0.390625 -1.109375,0.390625 z m 0,0"
           id="path341881" />
      </g>
    </g>
    <path
       style="fill:none;stroke:#000000;stroke-width:0.175683;stroke-linecap:butt;stroke-linejoin:miter;stroke-miterlimit:10;stroke-opacity:1"
       d="M 42.076858,124.20439 H 126.83309"
       id="path335665" />
    <g
       style="fill:#000000;fill-opacity:1"
       id="g335669"
       transform="matrix(0.35277777,0,0,0.35277777,-0.54448427,-1.6532086)">
      <g
         id="use335667"
         transform="translate(126.911,369.02499)">
        <path
           style="stroke:none"
           d="m 3.21875,-7.4375 -2.25,0.765625 v 0.28125 h 0.859375 c 0.65625,0 0.5,0.84375 0.5,2.015625 0,1.453125 -0.03125,2.921875 -0.09375,4.375 l 0.125,0.046875 0.875,-0.28125 c -0.03125,-0.796875 -0.03125,-2.859375 -0.03125,-4.28125 0,-0.9375 0.03125,-1.875 0.078125,-2.796875 z m 0,0"
           id="path341889" />
      </g>
    </g>
    <g
       style="fill:#000000;fill-opacity:1"
       id="g335673"
       transform="matrix(0.35277777,0,0,0.35277777,-0.54448427,-1.6532086)">
      <g
         id="use335671"
         transform="translate(145.66302,369.02499)">
        <path
           style="stroke:none"
           d="m 3.21875,-7.4375 -2.25,0.765625 v 0.28125 h 0.859375 c 0.65625,0 0.5,0.84375 0.5,2.015625 0,1.453125 -0.03125,2.921875 -0.09375,4.375 l 0.125,0.046875 0.875,-0.28125 c -0.03125,-0.796875 -0.03125,-2.859375 -0.03125,-4.28125 0,-0.9375 0.03125,-1.875 0.078125,-2.796875 z m 0,0"
           id="path341893" />
      </g>
    </g>
    <g
       style="fill:#000000;fill-opacity:1"
       id="g335677"
       transform="matrix(0.35277777,0,0,0.35277777,-0.54448427,-1.6532086)">
      <g
         id="use335675"
         transform="translate(150.8997,369.02499)">
        <path
           style="stroke:none"
           d="m 3.03125,-7.359375 c -0.453125,0.1875 -0.96875,0.4375 -1.3125,0.78125 -0.890625,0.890625 -1.359375,2.15625 -1.359375,3.40625 0,1.203125 0.28125,3.3125 1.796875,3.3125 1.9375,0 2.65625,-2.203125 2.65625,-3.859375 0,-1.390625 -0.515625,-2.828125 -1.78125,-3.640625 z M 2.453125,-6.6875 c 0.46875,0.203125 0.921875,0.921875 1,1.046875 0.453125,0.828125 0.703125,1.71875 0.703125,2.65625 0,1.015625 -0.25,2.4375 -1.515625,2.4375 -0.671875,0 -1.15625,-0.828125 -1.359375,-1.53125 C 1.109375,-2.65625 1.0625,-3.265625 1.0625,-3.875 c 0,-1.0625 0.46875,-2.234375 1.390625,-2.8125 z m 0,0"
           id="path341925" />
      </g>
    </g>
    <g
       style="fill:#000000;fill-opacity:1"
       id="g335681"
       transform="matrix(0.35277777,0,0,0.35277777,-0.54448427,-1.6532086)">
      <g
         id="use335679"
         transform="translate(169.53667,369.02499)">
        <path
           style="stroke:none"
           d="m 3.21875,-7.4375 -2.25,0.765625 v 0.28125 h 0.859375 c 0.65625,0 0.5,0.84375 0.5,2.015625 0,1.453125 -0.03125,2.921875 -0.09375,4.375 l 0.125,0.046875 0.875,-0.28125 c -0.03125,-0.796875 -0.03125,-2.859375 -0.03125,-4.28125 0,-0.9375 0.03125,-1.875 0.078125,-2.796875 z m 0,0"
           id="path341897" />
      </g>
    </g>
    <g
       style="fill:#000000;fill-opacity:1"
       id="g335687"
       transform="matrix(0.35277777,0,0,0.35277777,-0.54448427,-1.6532086)">
      <g
         id="use335683"
         transform="translate(174.77335,369.02499)">
        <path
           style="stroke:none"
           d="m 3.03125,-7.359375 c -0.453125,0.1875 -0.96875,0.4375 -1.3125,0.78125 -0.890625,0.890625 -1.359375,2.15625 -1.359375,3.40625 0,1.203125 0.28125,3.3125 1.796875,3.3125 1.9375,0 2.65625,-2.203125 2.65625,-3.859375 0,-1.390625 -0.515625,-2.828125 -1.78125,-3.640625 z M 2.453125,-6.6875 c 0.46875,0.203125 0.921875,0.921875 1,1.046875 0.453125,0.828125 0.703125,1.71875 0.703125,2.65625 0,1.015625 -0.25,2.4375 -1.515625,2.4375 -0.671875,0 -1.15625,-0.828125 -1.359375,-1.53125 C 1.109375,-2.65625 1.0625,-3.265625 1.0625,-3.875 c 0,-1.0625 0.46875,-2.234375 1.390625,-2.8125 z m 0,0"
           id="path341929" />
      </g>
      <g
         id="use335685"
         transform="translate(179.99956,369.02499)">
        <path
           style="stroke:none"
           d="m 3.03125,-7.359375 c -0.453125,0.1875 -0.96875,0.4375 -1.3125,0.78125 -0.890625,0.890625 -1.359375,2.15625 -1.359375,3.40625 0,1.203125 0.28125,3.3125 1.796875,3.3125 1.9375,0 2.65625,-2.203125 2.65625,-3.859375 0,-1.390625 -0.515625,-2.828125 -1.78125,-3.640625 z M 2.453125,-6.6875 c 0.46875,0.203125 0.921875,0.921875 1,1.046875 0.453125,0.828125 0.703125,1.71875 0.703125,2.65625 0,1.015625 -0.25,2.4375 -1.515625,2.4375 -0.671875,0 -1.15625,-0.828125 -1.359375,-1.53125 C 1.109375,-2.65625 1.0625,-3.265625 1.0625,-3.875 c 0,-1.0625 0.46875,-2.234375 1.390625,-2.8125 z m 0,0"
           id="path341933" />
      </g>
    </g>
    <g
       style="fill:#000000;fill-opacity:1"
       id="g335691"
       transform="matrix(0.35277777,0,0,0.35277777,-0.54448427,-1.6532086)">
      <g
         id="use335689"
         transform="translate(197.18246,369.02499)">
        <path
           style="stroke:none"
           d="m 3.21875,-7.4375 -2.25,0.765625 v 0.28125 h 0.859375 c 0.65625,0 0.5,0.84375 0.5,2.015625 0,1.453125 -0.03125,2.921875 -0.09375,4.375 l 0.125,0.046875 0.875,-0.28125 c -0.03125,-0.796875 -0.03125,-2.859375 -0.03125,-4.28125 0,-0.9375 0.03125,-1.875 0.078125,-2.796875 z m 0,0"
           id="path341901" />
      </g>
    </g>
    <g
       style="fill:#000000;fill-opacity:1"
       id="g335697"
       transform="matrix(0.35277777,0,0,0.35277777,-0.54448427,-1.6532086)">
      <g
         id="use335693"
         transform="translate(202.41914,369.02499)">
        <path
           style="stroke:none"
           d="m 3.03125,-7.359375 c -0.453125,0.1875 -0.96875,0.4375 -1.3125,0.78125 -0.890625,0.890625 -1.359375,2.15625 -1.359375,3.40625 0,1.203125 0.28125,3.3125 1.796875,3.3125 1.9375,0 2.65625,-2.203125 2.65625,-3.859375 0,-1.390625 -0.515625,-2.828125 -1.78125,-3.640625 z M 2.453125,-6.6875 c 0.46875,0.203125 0.921875,0.921875 1,1.046875 0.453125,0.828125 0.703125,1.71875 0.703125,2.65625 0,1.015625 -0.25,2.4375 -1.515625,2.4375 -0.671875,0 -1.15625,-0.828125 -1.359375,-1.53125 C 1.109375,-2.65625 1.0625,-3.265625 1.0625,-3.875 c 0,-1.0625 0.46875,-2.234375 1.390625,-2.8125 z m 0,0"
           id="path341937" />
      </g>
      <g
         id="use335695"
         transform="translate(207.64536,369.02499)">
        <path
           style="stroke:none"
           d="m 3.03125,-7.359375 c -0.453125,0.1875 -0.96875,0.4375 -1.3125,0.78125 -0.890625,0.890625 -1.359375,2.15625 -1.359375,3.40625 0,1.203125 0.28125,3.3125 1.796875,3.3125 1.9375,0 2.65625,-2.203125 2.65625,-3.859375 0,-1.390625 -0.515625,-2.828125 -1.78125,-3.640625 z M 2.453125,-6.6875 c 0.46875,0.203125 0.921875,0.921875 1,1.046875 0.453125,0.828125 0.703125,1.71875 0.703125,2.65625 0,1.015625 -0.25,2.4375 -1.515625,2.4375 -0.671875,0 -1.15625,-0.828125 -1.359375,-1.53125 C 1.109375,-2.65625 1.0625,-3.265625 1.0625,-3.875 c 0,-1.0625 0.46875,-2.234375 1.390625,-2.8125 z m 0,0"
           id="path341941" />
      </g>
    </g>
    <g
       style="fill:#000000;fill-opacity:1"
       id="g335701"
       transform="matrix(0.35277777,0,0,0.35277777,-0.54448427,-1.6532086)">
      <g
         id="use335699"
         transform="translate(212.88203,369.02499)">
        <path
           style="stroke:none"
           d="m 3.03125,-7.359375 c -0.453125,0.1875 -0.96875,0.4375 -1.3125,0.78125 -0.890625,0.890625 -1.359375,2.15625 -1.359375,3.40625 0,1.203125 0.28125,3.3125 1.796875,3.3125 1.9375,0 2.65625,-2.203125 2.65625,-3.859375 0,-1.390625 -0.515625,-2.828125 -1.78125,-3.640625 z M 2.453125,-6.6875 c 0.46875,0.203125 0.921875,0.921875 1,1.046875 0.453125,0.828125 0.703125,1.71875 0.703125,2.65625 0,1.015625 -0.25,2.4375 -1.515625,2.4375 -0.671875,0 -1.15625,-0.828125 -1.359375,-1.53125 C 1.109375,-2.65625 1.0625,-3.265625 1.0625,-3.875 c 0,-1.0625 0.46875,-2.234375 1.390625,-2.8125 z m 0,0"
           id="path341945" />
      </g>
    </g>
    <g
       style="fill:#000000;fill-opacity:1"
       id="g335707"
       transform="matrix(0.35277777,0,0,0.35277777,-0.54448427,-1.6532086)">
      <g
         id="use335703"
         transform="translate(230.06494,369.02499)">
        <path
           style="stroke:none"
           d="m 3.21875,-7.4375 -2.25,0.765625 v 0.28125 h 0.859375 c 0.65625,0 0.5,0.84375 0.5,2.015625 0,1.453125 -0.03125,2.921875 -0.09375,4.375 l 0.125,0.046875 0.875,-0.28125 c -0.03125,-0.796875 -0.03125,-2.859375 -0.03125,-4.28125 0,-0.9375 0.03125,-1.875 0.078125,-2.796875 z m 0,0"
           id="path341905" />
      </g>
      <g
         id="use335705"
         transform="translate(235.29117,369.02499)">
        <path
           style="stroke:none"
           d="m 3.03125,-7.359375 c -0.453125,0.1875 -0.96875,0.4375 -1.3125,0.78125 -0.890625,0.890625 -1.359375,2.15625 -1.359375,3.40625 0,1.203125 0.28125,3.3125 1.796875,3.3125 1.9375,0 2.65625,-2.203125 2.65625,-3.859375 0,-1.390625 -0.515625,-2.828125 -1.78125,-3.640625 z M 2.453125,-6.6875 c 0.46875,0.203125 0.921875,0.921875 1,1.046875 0.453125,0.828125 0.703125,1.71875 0.703125,2.65625 0,1.015625 -0.25,2.4375 -1.515625,2.4375 -0.671875,0 -1.15625,-0.828125 -1.359375,-1.53125 C 1.109375,-2.65625 1.0625,-3.265625 1.0625,-3.875 c 0,-1.0625 0.46875,-2.234375 1.390625,-2.8125 z m 0,0"
           id="path341949" />
      </g>
    </g>
    <g
       style="fill:#000000;fill-opacity:1"
       id="g335711"
       transform="matrix(0.35277777,0,0,0.35277777,-0.54448427,-1.6532086)">
      <g
         id="use335709"
         transform="translate(242.26433,369.02499)">
        <path
           style="stroke:none"
           d="m 3.03125,-7.359375 c -0.453125,0.1875 -0.96875,0.4375 -1.3125,0.78125 -0.890625,0.890625 -1.359375,2.15625 -1.359375,3.40625 0,1.203125 0.28125,3.3125 1.796875,3.3125 1.9375,0 2.65625,-2.203125 2.65625,-3.859375 0,-1.390625 -0.515625,-2.828125 -1.78125,-3.640625 z M 2.453125,-6.6875 c 0.46875,0.203125 0.921875,0.921875 1,1.046875 0.453125,0.828125 0.703125,1.71875 0.703125,2.65625 0,1.015625 -0.25,2.4375 -1.515625,2.4375 -0.671875,0 -1.15625,-0.828125 -1.359375,-1.53125 C 1.109375,-2.65625 1.0625,-3.265625 1.0625,-3.875 c 0,-1.0625 0.46875,-2.234375 1.390625,-2.8125 z m 0,0"
           id="path341953" />
      </g>
    </g>
    <g
       style="fill:#000000;fill-opacity:1"
       id="g335717"
       transform="matrix(0.35277777,0,0,0.35277777,-0.54448427,-1.6532086)">
      <g
         id="use335713"
         transform="translate(247.50101,369.02499)">
        <path
           style="stroke:none"
           d="m 3.03125,-7.359375 c -0.453125,0.1875 -0.96875,0.4375 -1.3125,0.78125 -0.890625,0.890625 -1.359375,2.15625 -1.359375,3.40625 0,1.203125 0.28125,3.3125 1.796875,3.3125 1.9375,0 2.65625,-2.203125 2.65625,-3.859375 0,-1.390625 -0.515625,-2.828125 -1.78125,-3.640625 z M 2.453125,-6.6875 c 0.46875,0.203125 0.921875,0.921875 1,1.046875 0.453125,0.828125 0.703125,1.71875 0.703125,2.65625 0,1.015625 -0.25,2.4375 -1.515625,2.4375 -0.671875,0 -1.15625,-0.828125 -1.359375,-1.53125 C 1.109375,-2.65625 1.0625,-3.265625 1.0625,-3.875 c 0,-1.0625 0.46875,-2.234375 1.390625,-2.8125 z m 0,0"
           id="path341957" />
      </g>
      <g
         id="use335715"
         transform="translate(252.72722,369.02499)">
        <path
           style="stroke:none"
           d="m 3.03125,-7.359375 c -0.453125,0.1875 -0.96875,0.4375 -1.3125,0.78125 -0.890625,0.890625 -1.359375,2.15625 -1.359375,3.40625 0,1.203125 0.28125,3.3125 1.796875,3.3125 1.9375,0 2.65625,-2.203125 2.65625,-3.859375 0,-1.390625 -0.515625,-2.828125 -1.78125,-3.640625 z M 2.453125,-6.6875 c 0.46875,0.203125 0.921875,0.921875 1,1.046875 0.453125,0.828125 0.703125,1.71875 0.703125,2.65625 0,1.015625 -0.25,2.4375 -1.515625,2.4375 -0.671875,0 -1.15625,-0.828125 -1.359375,-1.53125 C 1.109375,-2.65625 1.0625,-3.265625 1.0625,-3.875 c 0,-1.0625 0.46875,-2.234375 1.390625,-2.8125 z m 0,0"
           id="path341961" />
      </g>
    </g>
    <g
       style="fill:#000000;fill-opacity:1"
       id="g335721"
       transform="matrix(0.35277777,0,0,0.35277777,-0.54448427,-1.6532086)">
      <g
         id="use335719"
         transform="translate(269.91013,369.02499)">
        <path
           style="stroke:none"
           d="m 3.21875,-7.4375 -2.25,0.765625 v 0.28125 h 0.859375 c 0.65625,0 0.5,0.84375 0.5,2.015625 0,1.453125 -0.03125,2.921875 -0.09375,4.375 l 0.125,0.046875 0.875,-0.28125 c -0.03125,-0.796875 -0.03125,-2.859375 -0.03125,-4.28125 0,-0.9375 0.03125,-1.875 0.078125,-2.796875 z m 0,0"
           id="path341909" />
      </g>
    </g>
    <g
       style="fill:#000000;fill-opacity:1"
       id="g335727"
       transform="matrix(0.35277777,0,0,0.35277777,-0.54448427,-1.6532086)">
      <g
         id="use335723"
         transform="translate(275.14682,369.02499)">
        <path
           style="stroke:none"
           d="m 3.03125,-7.359375 c -0.453125,0.1875 -0.96875,0.4375 -1.3125,0.78125 -0.890625,0.890625 -1.359375,2.15625 -1.359375,3.40625 0,1.203125 0.28125,3.3125 1.796875,3.3125 1.9375,0 2.65625,-2.203125 2.65625,-3.859375 0,-1.390625 -0.515625,-2.828125 -1.78125,-3.640625 z M 2.453125,-6.6875 c 0.46875,0.203125 0.921875,0.921875 1,1.046875 0.453125,0.828125 0.703125,1.71875 0.703125,2.65625 0,1.015625 -0.25,2.4375 -1.515625,2.4375 -0.671875,0 -1.15625,-0.828125 -1.359375,-1.53125 C 1.109375,-2.65625 1.0625,-3.265625 1.0625,-3.875 c 0,-1.0625 0.46875,-2.234375 1.390625,-2.8125 z m 0,0"
           id="path341965" />
      </g>
      <g
         id="use335725"
         transform="translate(280.37302,369.02499)">
        <path
           style="stroke:none"
           d="m 3.03125,-7.359375 c -0.453125,0.1875 -0.96875,0.4375 -1.3125,0.78125 -0.890625,0.890625 -1.359375,2.15625 -1.359375,3.40625 0,1.203125 0.28125,3.3125 1.796875,3.3125 1.9375,0 2.65625,-2.203125 2.65625,-3.859375 0,-1.390625 -0.515625,-2.828125 -1.78125,-3.640625 z M 2.453125,-6.6875 c 0.46875,0.203125 0.921875,0.921875 1,1.046875 0.453125,0.828125 0.703125,1.71875 0.703125,2.65625 0,1.015625 -0.25,2.4375 -1.515625,2.4375 -0.671875,0 -1.15625,-0.828125 -1.359375,-1.53125 C 1.109375,-2.65625 1.0625,-3.265625 1.0625,-3.875 c 0,-1.0625 0.46875,-2.234375 1.390625,-2.8125 z m 0,0"
           id="path341969" />
      </g>
    </g>
    <g
       style="fill:#000000;fill-opacity:1"
       id="g335731"
       transform="matrix(0.35277777,0,0,0.35277777,-0.54448427,-1.6532086)">
      <g
         id="use335729"
         transform="translate(287.34619,369.02499)">
        <path
           style="stroke:none"
           d="m 3.03125,-7.359375 c -0.453125,0.1875 -0.96875,0.4375 -1.3125,0.78125 -0.890625,0.890625 -1.359375,2.15625 -1.359375,3.40625 0,1.203125 0.28125,3.3125 1.796875,3.3125 1.9375,0 2.65625,-2.203125 2.65625,-3.859375 0,-1.390625 -0.515625,-2.828125 -1.78125,-3.640625 z M 2.453125,-6.6875 c 0.46875,0.203125 0.921875,0.921875 1,1.046875 0.453125,0.828125 0.703125,1.71875 0.703125,2.65625 0,1.015625 -0.25,2.4375 -1.515625,2.4375 -0.671875,0 -1.15625,-0.828125 -1.359375,-1.53125 C 1.109375,-2.65625 1.0625,-3.265625 1.0625,-3.875 c 0,-1.0625 0.46875,-2.234375 1.390625,-2.8125 z m 0,0"
           id="path341973" />
      </g>
    </g>
    <g
       style="fill:#000000;fill-opacity:1"
       id="g335737"
       transform="matrix(0.35277777,0,0,0.35277777,-0.54448427,-1.6532086)">
      <g
         id="use335733"
         transform="translate(292.58289,369.02499)">
        <path
           style="stroke:none"
           d="m 3.03125,-7.359375 c -0.453125,0.1875 -0.96875,0.4375 -1.3125,0.78125 -0.890625,0.890625 -1.359375,2.15625 -1.359375,3.40625 0,1.203125 0.28125,3.3125 1.796875,3.3125 1.9375,0 2.65625,-2.203125 2.65625,-3.859375 0,-1.390625 -0.515625,-2.828125 -1.78125,-3.640625 z M 2.453125,-6.6875 c 0.46875,0.203125 0.921875,0.921875 1,1.046875 0.453125,0.828125 0.703125,1.71875 0.703125,2.65625 0,1.015625 -0.25,2.4375 -1.515625,2.4375 -0.671875,0 -1.15625,-0.828125 -1.359375,-1.53125 C 1.109375,-2.65625 1.0625,-3.265625 1.0625,-3.875 c 0,-1.0625 0.46875,-2.234375 1.390625,-2.8125 z m 0,0"
           id="path341977" />
      </g>
      <g
         id="use335735"
         transform="translate(297.80908,369.02499)">
        <path
           style="stroke:none"
           d="m 3.03125,-7.359375 c -0.453125,0.1875 -0.96875,0.4375 -1.3125,0.78125 -0.890625,0.890625 -1.359375,2.15625 -1.359375,3.40625 0,1.203125 0.28125,3.3125 1.796875,3.3125 1.9375,0 2.65625,-2.203125 2.65625,-3.859375 0,-1.390625 -0.515625,-2.828125 -1.78125,-3.640625 z M 2.453125,-6.6875 c 0.46875,0.203125 0.921875,0.921875 1,1.046875 0.453125,0.828125 0.703125,1.71875 0.703125,2.65625 0,1.015625 -0.25,2.4375 -1.515625,2.4375 -0.671875,0 -1.15625,-0.828125 -1.359375,-1.53125 C 1.109375,-2.65625 1.0625,-3.265625 1.0625,-3.875 c 0,-1.0625 0.46875,-2.234375 1.390625,-2.8125 z m 0,0"
           id="path341981" />
      </g>
    </g>
    <g
       style="fill:#000000;fill-opacity:1"
       id="g335741"
       transform="matrix(0.35277777,0,0,0.35277777,-0.54448427,-1.6532086)">
      <g
         id="use335739"
         transform="translate(314.992,369.02499)">
        <path
           style="stroke:none"
           d="m 3.21875,-7.4375 -2.25,0.765625 v 0.28125 h 0.859375 c 0.65625,0 0.5,0.84375 0.5,2.015625 0,1.453125 -0.03125,2.921875 -0.09375,4.375 l 0.125,0.046875 0.875,-0.28125 c -0.03125,-0.796875 -0.03125,-2.859375 -0.03125,-4.28125 0,-0.9375 0.03125,-1.875 0.078125,-2.796875 z m 0,0"
           id="path341913" />
      </g>
    </g>
    <g
       style="fill:#000000;fill-opacity:1"
       id="g335745"
       transform="matrix(0.35277777,0,0,0.35277777,-0.54448427,-1.6532086)">
      <g
         id="use335743"
         transform="translate(321.96518,369.02499)">
        <path
           style="stroke:none"
           d="m 3.03125,-7.359375 c -0.453125,0.1875 -0.96875,0.4375 -1.3125,0.78125 -0.890625,0.890625 -1.359375,2.15625 -1.359375,3.40625 0,1.203125 0.28125,3.3125 1.796875,3.3125 1.9375,0 2.65625,-2.203125 2.65625,-3.859375 0,-1.390625 -0.515625,-2.828125 -1.78125,-3.640625 z M 2.453125,-6.6875 c 0.46875,0.203125 0.921875,0.921875 1,1.046875 0.453125,0.828125 0.703125,1.71875 0.703125,2.65625 0,1.015625 -0.25,2.4375 -1.515625,2.4375 -0.671875,0 -1.15625,-0.828125 -1.359375,-1.53125 C 1.109375,-2.65625 1.0625,-3.265625 1.0625,-3.875 c 0,-1.0625 0.46875,-2.234375 1.390625,-2.8125 z m 0,0"
           id="path341985" />
      </g>
    </g>
    <g
       style="fill:#000000;fill-opacity:1"
       id="g335751"
       transform="matrix(0.35277777,0,0,0.35277777,-0.54448427,-1.6532086)">
      <g
         id="use335747"
         transform="translate(327.20184,369.02499)">
        <path
           style="stroke:none"
           d="m 3.03125,-7.359375 c -0.453125,0.1875 -0.96875,0.4375 -1.3125,0.78125 -0.890625,0.890625 -1.359375,2.15625 -1.359375,3.40625 0,1.203125 0.28125,3.3125 1.796875,3.3125 1.9375,0 2.65625,-2.203125 2.65625,-3.859375 0,-1.390625 -0.515625,-2.828125 -1.78125,-3.640625 z M 2.453125,-6.6875 c 0.46875,0.203125 0.921875,0.921875 1,1.046875 0.453125,0.828125 0.703125,1.71875 0.703125,2.65625 0,1.015625 -0.25,2.4375 -1.515625,2.4375 -0.671875,0 -1.15625,-0.828125 -1.359375,-1.53125 C 1.109375,-2.65625 1.0625,-3.265625 1.0625,-3.875 c 0,-1.0625 0.46875,-2.234375 1.390625,-2.8125 z m 0,0"
           id="path341989" />
      </g>
      <g
         id="use335749"
         transform="translate(332.42807,369.02499)">
        <path
           style="stroke:none"
           d="m 3.03125,-7.359375 c -0.453125,0.1875 -0.96875,0.4375 -1.3125,0.78125 -0.890625,0.890625 -1.359375,2.15625 -1.359375,3.40625 0,1.203125 0.28125,3.3125 1.796875,3.3125 1.9375,0 2.65625,-2.203125 2.65625,-3.859375 0,-1.390625 -0.515625,-2.828125 -1.78125,-3.640625 z M 2.453125,-6.6875 c 0.46875,0.203125 0.921875,0.921875 1,1.046875 0.453125,0.828125 0.703125,1.71875 0.703125,2.65625 0,1.015625 -0.25,2.4375 -1.515625,2.4375 -0.671875,0 -1.15625,-0.828125 -1.359375,-1.53125 C 1.109375,-2.65625 1.0625,-3.265625 1.0625,-3.875 c 0,-1.0625 0.46875,-2.234375 1.390625,-2.8125 z m 0,0"
           id="path341993" />
      </g>
    </g>
    <g
       style="fill:#000000;fill-opacity:1"
       id="g335755"
       transform="matrix(0.35277777,0,0,0.35277777,-0.54448427,-1.6532086)">
      <g
         id="use335753"
         transform="translate(339.40125,369.02499)">
        <path
           style="stroke:none"
           d="m 3.03125,-7.359375 c -0.453125,0.1875 -0.96875,0.4375 -1.3125,0.78125 -0.890625,0.890625 -1.359375,2.15625 -1.359375,3.40625 0,1.203125 0.28125,3.3125 1.796875,3.3125 1.9375,0 2.65625,-2.203125 2.65625,-3.859375 0,-1.390625 -0.515625,-2.828125 -1.78125,-3.640625 z M 2.453125,-6.6875 c 0.46875,0.203125 0.921875,0.921875 1,1.046875 0.453125,0.828125 0.703125,1.71875 0.703125,2.65625 0,1.015625 -0.25,2.4375 -1.515625,2.4375 -0.671875,0 -1.15625,-0.828125 -1.359375,-1.53125 C 1.109375,-2.65625 1.0625,-3.265625 1.0625,-3.875 c 0,-1.0625 0.46875,-2.234375 1.390625,-2.8125 z m 0,0"
           id="path341997" />
      </g>
    </g>
    <g
       style="fill:#000000;fill-opacity:1"
       id="g335761"
       transform="matrix(0.35277777,0,0,0.35277777,-0.54448427,-1.6532086)">
      <g
         id="use335757"
         transform="translate(344.63791,369.02499)">
        <path
           style="stroke:none"
           d="m 3.03125,-7.359375 c -0.453125,0.1875 -0.96875,0.4375 -1.3125,0.78125 -0.890625,0.890625 -1.359375,2.15625 -1.359375,3.40625 0,1.203125 0.28125,3.3125 1.796875,3.3125 1.9375,0 2.65625,-2.203125 2.65625,-3.859375 0,-1.390625 -0.515625,-2.828125 -1.78125,-3.640625 z M 2.453125,-6.6875 c 0.46875,0.203125 0.921875,0.921875 1,1.046875 0.453125,0.828125 0.703125,1.71875 0.703125,2.65625 0,1.015625 -0.25,2.4375 -1.515625,2.4375 -0.671875,0 -1.15625,-0.828125 -1.359375,-1.53125 C 1.109375,-2.65625 1.0625,-3.265625 1.0625,-3.875 c 0,-1.0625 0.46875,-2.234375 1.390625,-2.8125 z m 0,0"
           id="path342001" />
      </g>
      <g
         id="use335759"
         transform="translate(349.86414,369.02499)">
        <path
           style="stroke:none"
           d="m 3.03125,-7.359375 c -0.453125,0.1875 -0.96875,0.4375 -1.3125,0.78125 -0.890625,0.890625 -1.359375,2.15625 -1.359375,3.40625 0,1.203125 0.28125,3.3125 1.796875,3.3125 1.9375,0 2.65625,-2.203125 2.65625,-3.859375 0,-1.390625 -0.515625,-2.828125 -1.78125,-3.640625 z M 2.453125,-6.6875 c 0.46875,0.203125 0.921875,0.921875 1,1.046875 0.453125,0.828125 0.703125,1.71875 0.703125,2.65625 0,1.015625 -0.25,2.4375 -1.515625,2.4375 -0.671875,0 -1.15625,-0.828125 -1.359375,-1.53125 C 1.109375,-2.65625 1.0625,-3.265625 1.0625,-3.875 c 0,-1.0625 0.46875,-2.234375 1.390625,-2.8125 z m 0,0"
           id="path342005" />
      </g>
    </g>
    <path
       style="fill:none;stroke:#000000;stroke-width:0.281164;stroke-linecap:butt;stroke-linejoin:miter;stroke-miterlimit:10;stroke-opacity:1"
       d="M 42.076858,130.67152 H 126.83309"
       id="path335763" />
  </g>
</svg>
